<svg xmlns="http://www.w3.org/2000/svg" viewBox="0 0 20.62 20.62"><defs><style>.cls-1{fill:#fff;}.cls-2{fill:#00b248;}</style></defs><title>ver blanco</title><g id="Capa_2" data-name="Capa 2"><g id="Capa_1-2" data-name="Capa 1"><circle class="cls-1" cx="10.31" cy="10.31" r="10.31"/><path class="cls-2" d="M10.31,14.87a8,8,0,0,1-7.12-4.28L3,10.31,3.19,10a8.05,8.05,0,0,1,14.23,0l.16.29-.16.28a8,8,0,0,1-7.11,4.28Z"/><path class="cls-1" d="M10.31,14.14A3.82,3.82,0,1,1,13,13,3.82,3.82,0,0,1,10.31,14.14Zm0-6.31a2.48,2.48,0,1,0,2.48,2.48A2.48,2.48,0,0,0,10.31,7.83Z"/><circle class="cls-1" cx="8.91" cy="8.73" r="1.44"/></g></g></svg>
